# xmcd
#
# Track frame offsets:
#	150
#	20673
#	45763
#	62870
#	81187
#	103301
#	128454
#	158320
#	176346
#	188054
#	211084
#
# Disc length: 3201 seconds
#
# Revision: 0
# Processed by: cddbd v1.4PL0 Copyright (c) Steve Scherf et al.
# Submitted via: EasyCDDAExtractor 4.6.9.1
#
DISCID=7e0c7f0b
DTITLE=Cedell Davis - When Lightnin' Struck the Pine
DYEAR=2002
DGENRE=Blues
TTITLE0=Pay To Play
TTITLE1=Come on and ride with Me
TTITLE2=Woke Up This Morning
TTITLE3=So Long, I hate To See you go
TTITLE4=Give me that look
TTITLE5=Love me a little while
TTITLE6=Cold Chills
TTITLE7=One of these days
TTITLE8=Propaganda
TTITLE9=Rub me baby
TTITLE10=Hold me baby
EXTD=
EXTT0=
EXTT1=
EXTT2=
EXTT3=
EXTT4=
EXTT5=
EXTT6=
EXTT7=
EXTT8=
EXTT9=
EXTT10=
PLAYORDER=
